<svg style="position: absolute; width: 0; height: 0; overflow: hidden;" version="1.1" xmlns="http://www.w3.org/2000/svg" xmlns:xlink="http://www.w3.org/1999/xlink">
<defs>
<symbol id="icon-home3" viewBox="0 0 32 32">
<title>home3</title>
<path d="M32 19l-6-6v-9h-4v5l-6-6-16 16v1h4v10h10v-6h4v6h10v-10h4z"></path>
</symbol>
<symbol id="icon-pencil2" viewBox="0 0 32 32">
<title>pencil2</title>
<path d="M12 20l4-2 14-14-2-2-14 14-2 4zM9.041 27.097c-0.989-2.085-2.052-3.149-4.137-4.137l3.097-8.525 4-2.435 12-12h-6l-12 12-6 20 20-6 12-12v-6l-12 12-2.435 4z"></path>
</symbol>
<symbol id="icon-quill" viewBox="0 0 32 32">
<title>quill</title>
<path d="M0 32c4-12 14.469-32 32-32-8.219 6.594-12 22-18 22s-6 0-6 0l-6 10h-2z"></path>
</symbol>
<symbol id="icon-image" viewBox="0 0 32 32">
<title>image</title>
<path d="M29.996 4c0.001 0.001 0.003 0.002 0.004 0.004v23.993c-0.001 0.001-0.002 0.003-0.004 0.004h-27.993c-0.001-0.001-0.003-0.002-0.004-0.004v-23.993c0.001-0.001 0.002-0.003 0.004-0.004h27.993zM30 2h-28c-1.1 0-2 0.9-2 2v24c0 1.1 0.9 2 2 2h28c1.1 0 2-0.9 2-2v-24c0-1.1-0.9-2-2-2v0z"></path>
<path d="M26 9c0 1.657-1.343 3-3 3s-3-1.343-3-3 1.343-3 3-3 3 1.343 3 3z"></path>
<path d="M28 26h-24v-4l7-12 8 10h2l7-6z"></path>
</symbol>
<symbol id="icon-images" viewBox="0 0 36 32">
<title>images</title>
<path d="M34 4h-2v-2c0-1.1-0.9-2-2-2h-28c-1.1 0-2 0.9-2 2v24c0 1.1 0.9 2 2 2h2v2c0 1.1 0.9 2 2 2h28c1.1 0 2-0.9 2-2v-24c0-1.1-0.9-2-2-2zM4 6v20h-1.996c-0.001-0.001-0.003-0.002-0.004-0.004v-23.993c0.001-0.001 0.002-0.003 0.004-0.004h27.993c0.001 0.001 0.003 0.002 0.004 0.004v1.996h-24c-1.1 0-2 0.9-2 2v0zM34 29.996c-0.001 0.001-0.002 0.003-0.004 0.004h-27.993c-0.001-0.001-0.003-0.002-0.004-0.004v-23.993c0.001-0.001 0.002-0.003 0.004-0.004h27.993c0.001 0.001 0.003 0.002 0.004 0.004v23.993z"></path>
<path d="M30 11c0 1.657-1.343 3-3 3s-3-1.343-3-3 1.343-3 3-3 3 1.343 3 3z"></path>
<path d="M32 28h-24v-4l7-12 8 10h2l7-6z"></path>
</symbol>
<symbol id="icon-headphones" viewBox="0 0 32 32">
<title>headphones</title>
<path d="M9 18h-2v14h2c0.55 0 1-0.45 1-1v-12c0-0.55-0.45-1-1-1z"></path>
<path d="M23 18c-0.55 0-1 0.45-1 1v12c0 0.55 0.45 1 1 1h2v-14h-2z"></path>
<path d="M32 16c0-8.837-7.163-16-16-16s-16 7.163-16 16c0 1.919 0.338 3.759 0.958 5.464-0.609 1.038-0.958 2.246-0.958 3.536 0 3.526 2.608 6.443 6 6.929v-13.857c-0.997 0.143-1.927 0.495-2.742 1.012-0.168-0.835-0.258-1.699-0.258-2.584 0-7.18 5.82-13 13-13s13 5.82 13 13c0 0.885-0.088 1.749-0.257 2.584-0.816-0.517-1.745-0.87-2.743-1.013v13.858c3.392-0.485 6-3.402 6-6.929 0-1.29-0.349-2.498-0.958-3.536 0.62-1.705 0.958-3.545 0.958-5.465z"></path>
</symbol>
<symbol id="icon-music" viewBox="0 0 32 32">
<title>music</title>
<path d="M30 0h2v23c0 2.761-3.134 5-7 5s-7-2.239-7-5c0-2.761 3.134-5 7-5 1.959 0 3.729 0.575 5 1.501v-11.501l-16 3.556v15.444c0 2.761-3.134 5-7 5s-7-2.239-7-5c0-2.761 3.134-5 7-5 1.959 0 3.729 0.575 5 1.501v-19.501l18-4z"></path>
</symbol>
<symbol id="icon-play" viewBox="0 0 32 32">
<title>play</title>
<path d="M30.662 5.003c-4.488-0.645-9.448-1.003-14.662-1.003s-10.174 0.358-14.662 1.003c-0.86 3.366-1.338 7.086-1.338 10.997s0.477 7.63 1.338 10.997c4.489 0.645 9.448 1.003 14.662 1.003s10.174-0.358 14.662-1.003c0.86-3.366 1.338-7.086 1.338-10.997s-0.477-7.63-1.338-10.997zM12 22v-12l10 6-10 6z"></path>
</symbol>
<symbol id="icon-connection" viewBox="0 0 40 32">
<title>connection</title>
<path d="M20 18c3.308 0 6.308 1.346 8.481 3.519l-2.827 2.827c-1.449-1.449-3.449-2.346-5.654-2.346s-4.206 0.897-5.654 2.346l-2.827-2.827c2.173-2.173 5.173-3.519 8.481-3.519zM5.858 15.858c3.777-3.777 8.8-5.858 14.142-5.858s10.365 2.080 14.142 5.858l-2.828 2.828c-3.022-3.022-7.040-4.686-11.314-4.686s-8.292 1.664-11.314 4.686l-2.828-2.828zM30.899 4.201c3.334 1.41 6.329 3.429 8.899 6v0l-2.828 2.828c-4.533-4.533-10.56-7.029-16.971-7.029s-12.438 2.496-16.971 7.029l-2.828-2.828c2.571-2.571 5.565-4.589 8.899-6 3.453-1.461 7.12-2.201 10.899-2.201s7.446 0.741 10.899 2.201zM18 28c0-1.105 0.895-2 2-2s2 0.895 2 2c0 1.105-0.895 2-2 2s-2-0.895-2-2z"></path>
</symbol>
<symbol id="icon-barcode" viewBox="0 0 32 32">
<title>barcode</title>
<path d="M0 4h4v20h-4zM6 4h2v20h-2zM10 4h2v20h-2zM16 4h2v20h-2zM24 4h2v20h-2zM30 4h2v20h-2zM20 4h1v20h-1zM14 4h1v20h-1zM27 4h1v20h-1zM0 26h2v2h-2zM6 26h2v2h-2zM10 26h2v2h-2zM20 26h2v2h-2zM30 26h2v2h-2zM24 26h4v2h-4zM14 26h4v2h-4z"></path>
</symbol>
<symbol id="icon-coin-dollar" viewBox="0 0 32 32">
<title>coin-dollar</title>
<path d="M15 2c-8.284 0-15 6.716-15 15s6.716 15 15 15c8.284 0 15-6.716 15-15s-6.716-15-15-15zM15 29c-6.627 0-12-5.373-12-12s5.373-12 12-12c6.627 0 12 5.373 12 12s-5.373 12-12 12zM16 16v-4h4v-2h-4v-2h-2v2h-4v8h4v4h-4v2h4v2h2v-2h4l-0-8h-4zM14 16h-2v-4h2v4zM18 22h-2v-4h2v4z"></path>
</symbol>
<symbol id="icon-coin-euro" viewBox="0 0 32 32">
<title>coin-euro</title>
<path d="M15 2c-8.284 0-15 6.716-15 15s6.716 15 15 15c8.284 0 15-6.716 15-15s-6.716-15-15-15zM15 29c-6.627 0-12-5.373-12-12s5.373-12 12-12c6.627 0 12 5.373 12 12s-5.373 12-12 12z"></path>
<path d="M20.963 20.136c-0.477-0.278-1.089-0.116-1.367 0.362-0.539 0.927-1.534 1.503-2.596 1.503h-4c-1.304 0-2.415-0.836-2.828-2h4.828c0.552 0 1-0.448 1-1s-0.448-1-1-1h-5v-2h5c0.552 0 1-0.448 1-1s-0.448-1-1-1h-4.828c0.413-1.164 1.524-2 2.828-2h4c1.062 0 2.057 0.576 2.596 1.503 0.278 0.477 0.89 0.639 1.367 0.361s0.639-0.89 0.361-1.367c-0.896-1.54-2.553-2.497-4.325-2.497h-4c-2.415 0-4.435 1.72-4.899 4h-1.101c-0.552 0-1 0.448-1 1s0.448 1 1 1h1v2h-1c-0.552 0-1 0.448-1 1s0.448 1 1 1h1.101c0.465 2.279 2.485 4 4.899 4h4c1.772 0 3.429-0.957 4.325-2.497 0.278-0.477 0.116-1.090-0.362-1.367z"></path>
</symbol>
<symbol id="icon-coin-pound" viewBox="0 0 32 32">
<title>coin-pound</title>
<path d="M15 2c-8.284 0-15 6.716-15 15s6.716 15 15 15c8.284 0 15-6.716 15-15s-6.716-15-15-15zM15 29c-6.627 0-12-5.373-12-12s5.373-12 12-12c6.627 0 12 5.373 12 12s-5.373 12-12 12z"></path>
<path d="M19 22h-7v-4h3c0.552 0 1-0.448 1-1s-0.448-1-1-1h-3v-1c0-1.654 1.346-3 3-3 1.068 0 2.064 0.575 2.599 1.501 0.277 0.478 0.888 0.641 1.366 0.365s0.641-0.888 0.365-1.366c-0.892-1.542-2.551-2.499-4.331-2.499-2.757 0-5 2.243-5 5v1h-1c-0.552 0-1 0.448-1 1s0.448 1 1 1h1v6h9c0.552 0 1-0.448 1-1s-0.448-1-1-1z"></path>
</symbol>
<symbol id="icon-coin-yen" viewBox="0 0 32 32">
<title>coin-yen</title>
<path d="M15 2c-8.284 0-15 6.716-15 15s6.716 15 15 15c8.284 0 15-6.716 15-15s-6.716-15-15-15zM15 29c-6.627 0-12-5.373-12-12s5.373-12 12-12c6.627 0 12 5.373 12 12s-5.373 12-12 12z"></path>
<path d="M19 18c0.552 0 1-0.448 1-1s-0.448-1-1-1h-2.131l2.963-4.445c0.306-0.46 0.182-1.080-0.277-1.387s-1.080-0.182-1.387 0.277l-3.168 4.752-3.168-4.752c-0.306-0.46-0.927-0.584-1.387-0.277s-0.584 0.927-0.277 1.387l2.964 4.445h-2.132c-0.552 0-1 0.448-1 1s0.448 1 1 1h3v2h-3c-0.552 0-1 0.448-1 1s0.448 1 1 1h3v3c0 0.552 0.448 1 1 1s1-0.448 1-1v-3h3c0.552 0 1-0.448 1-1s-0.448-1-1-1h-3v-2h3z"></path>
</symbol>
<symbol id="icon-location2" viewBox="0 0 32 32">
<title>location2</title>
<path d="M16 0c-5.523 0-10 4.477-10 10 0 10 10 22 10 22s10-12 10-22c0-5.523-4.477-10-10-10zM16 16.125c-3.383 0-6.125-2.742-6.125-6.125s2.742-6.125 6.125-6.125 6.125 2.742 6.125 6.125-2.742 6.125-6.125 6.125zM12.125 10c0-2.14 1.735-3.875 3.875-3.875s3.875 1.735 3.875 3.875c0 2.14-1.735 3.875-3.875 3.875s-3.875-1.735-3.875-3.875z"></path>
</symbol>
<symbol id="icon-compass2" viewBox="0 0 32 32">
<title>compass2</title>
<path d="M16 0c-8.837 0-16 7.163-16 16s7.163 16 16 16 16-7.163 16-16-7.163-16-16-16zM3 16c0-7.18 5.82-13 13-13 3.424 0 6.538 1.325 8.86 3.488l-12.86 5.512-5.512 12.86c-2.164-2.322-3.488-5.436-3.488-8.86zM18.286 18.286l-8.003 3.43 3.43-8.003 4.573 4.573zM16 29c-3.424 0-6.539-1.325-8.86-3.488l12.86-5.512 5.512-12.86c2.164 2.322 3.488 5.436 3.488 8.86 0 7.18-5.82 13-13 13z"></path>
</symbol>
<symbol id="icon-clock" viewBox="0 0 32 32">
<title>clock</title>
<path d="M20.586 23.414l-6.586-6.586v-8.828h4v7.172l5.414 5.414zM16 0c-8.837 0-16 7.163-16 16s7.163 16 16 16 16-7.163 16-16-7.163-16-16-16zM16 28c-6.627 0-12-5.373-12-12s5.373-12 12-12c6.627 0 12 5.373 12 12s-5.373 12-12 12z"></path>
</symbol>
<symbol id="icon-printer" viewBox="0 0 32 32">
<title>printer</title>
<path d="M8 2h16v4h-16v-4z"></path>
<path d="M30 8h-28c-1.1 0-2 0.9-2 2v10c0 1.1 0.9 2 2 2h6v8h16v-8h6c1.1 0 2-0.9 2-2v-10c0-1.1-0.9-2-2-2zM4 14c-1.105 0-2-0.895-2-2s0.895-2 2-2 2 0.895 2 2-0.895 2-2 2zM22 28h-12v-10h12v10z"></path>
</symbol>
<symbol id="icon-display" viewBox="0 0 32 32">
<title>display</title>
<path d="M0 2v20h32v-20h-32zM30 20h-28v-16h28v16zM21 24h-10l-1 4-2 2h16l-2-2z"></path>
</symbol>
<symbol id="icon-laptop" viewBox="0 0 32 32">
<title>laptop</title>
<path d="M28 22v-16c0-1.1-0.9-2-2-2h-20c-1.1 0-2 0.9-2 2v16h-4v6h32v-6h-4zM20 26h-8v-2h8v2zM26 22h-20v-15.996c0.001-0.001 0.002-0.003 0.004-0.004h19.993c0.001 0.001 0.003 0.002 0.004 0.004v15.996z"></path>
</symbol>
<symbol id="icon-mobile" viewBox="0 0 32 32">
<title>mobile</title>
<path d="M23 0h-14c-1.65 0-3 1.35-3 3v26c0 1.65 1.35 3 3 3h14c1.65 0 3-1.35 3-3v-26c0-1.65-1.35-3-3-3zM12 1.5h8v1h-8v-1zM16 30c-1.105 0-2-0.895-2-2s0.895-2 2-2 2 0.895 2 2-0.895 2-2 2zM24 24h-16v-20h16v20z"></path>
</symbol>
<symbol id="icon-mobile2" viewBox="0 0 32 32">
<title>mobile2</title>
<path d="M24 0h-18c-1.1 0-2 0.9-2 2v28c0 1.1 0.9 2 2 2h18c1.1 0 2-0.9 2-2v-28c0-1.1-0.9-2-2-2zM15 30.556c-0.859 0-1.556-0.697-1.556-1.556s0.697-1.556 1.556-1.556 1.556 0.697 1.556 1.556-0.697 1.556-1.556 1.556zM24 26h-18v-22h18v22z"></path>
</symbol>
<symbol id="icon-tablet" viewBox="0 0 32 32">
<title>tablet</title>
<path d="M25 0h-20c-1.65 0-3 1.35-3 3v26c0 1.65 1.35 3 3 3h20c1.65 0 3-1.35 3-3v-26c0-1.65-1.35-3-3-3zM15 31c-0.552 0-1-0.448-1-1s0.448-1 1-1 1 0.448 1 1-0.448 1-1 1zM24 28h-18v-24h18v24z"></path>
</symbol>
<symbol id="icon-floppy-disk" viewBox="0 0 32 32">
<title>floppy-disk</title>
<path d="M28 0h-28v32h32v-28l-4-4zM16 4h4v8h-4v-8zM28 28h-24v-24h2v10h18v-10h2.343l1.657 1.657v22.343z"></path>
</symbol>
<symbol id="icon-key" viewBox="0 0 32 32">
<title>key</title>
<path d="M22 0c-5.523 0-10 4.477-10 10 0 0.626 0.058 1.238 0.168 1.832l-12.168 12.168v6c0 1.105 0.895 2 2 2h2v-2h4v-4h4v-4h4l2.595-2.595c1.063 0.385 2.209 0.595 3.405 0.595 5.523 0 10-4.477 10-10s-4.477-10-10-10zM24.996 10.004c-1.657 0-3-1.343-3-3s1.343-3 3-3 3 1.343 3 3-1.343 3-3 3z"></path>
</symbol>
<symbol id="icon-leaf" viewBox="0 0 32 32">
<title>leaf</title>
<path d="M31.604 4.203c-3.461-2.623-8.787-4.189-14.247-4.189-6.754 0-12.257 2.358-15.099 6.469-1.335 1.931-2.073 4.217-2.194 6.796-0.108 2.296 0.278 4.835 1.146 7.567 2.965-8.887 11.244-15.847 20.79-15.847 0 0-8.932 2.351-14.548 9.631-0.003 0.004-0.078 0.097-0.207 0.272-1.128 1.509-2.111 3.224-2.846 5.166-1.246 2.963-2.4 7.030-2.4 11.931h4c0 0-0.607-3.819 0.449-8.212 1.747 0.236 3.308 0.353 4.714 0.353 3.677 0 6.293-0.796 8.231-2.504 1.736-1.531 2.694-3.587 3.707-5.764 1.548-3.325 3.302-7.094 8.395-10.005 0.292-0.167 0.48-0.468 0.502-0.804s-0.126-0.659-0.394-0.862z"></path>
</symbol>
<symbol id="icon-rocket" viewBox="0 0 32 32">
<title>rocket</title>
<path d="M22 2l-10 10h-6l-6 8c0 0 6.357-1.77 10.065-0.94l-10.065 12.94 13.184-10.255c1.839 4.208-1.184 10.255-1.184 10.255l8-6v-6l10-10 2-10-10 2z"></path>
</symbol>
<symbol id="icon-fire" viewBox="0 0 32 32">
<title>fire</title>
<path d="M10.031 32c-2.133-4.438-0.997-6.981 0.642-9.376 1.795-2.624 2.258-5.221 2.258-5.221s1.411 1.834 0.847 4.703c2.493-2.775 2.963-7.196 2.587-8.889 5.635 3.938 8.043 12.464 4.798 18.783 17.262-9.767 4.294-24.38 2.036-26.027 0.753 1.646 0.895 4.433-0.625 5.785-2.573-9.759-8.937-11.759-8.937-11.759 0.753 5.033-2.728 10.536-6.084 14.648-0.118-2.007-0.243-3.392-1.298-5.312-0.237 3.646-3.023 6.617-3.777 10.27-1.022 4.946 0.765 8.568 7.555 12.394z"></path>
</symbol>
<symbol id="icon-bin" viewBox="0 0 32 32">
<title>bin</title>
<path d="M4 10v20c0 1.1 0.9 2 2 2h18c1.1 0 2-0.9 2-2v-20h-22zM10 28h-2v-14h2v14zM14 28h-2v-14h2v14zM18 28h-2v-14h2v14zM22 28h-2v-14h2v14z"></path>
<path d="M26.5 4h-6.5v-2.5c0-0.825-0.675-1.5-1.5-1.5h-7c-0.825 0-1.5 0.675-1.5 1.5v2.5h-6.5c-0.825 0-1.5 0.675-1.5 1.5v2.5h26v-2.5c0-0.825-0.675-1.5-1.5-1.5zM18 4h-6v-1.975h6v1.975z"></path>
</symbol>
<symbol id="icon-list-numbered" viewBox="0 0 32 32">
<title>list-numbered</title>
<path d="M12 26h20v4h-20zM12 14h20v4h-20zM12 2h20v4h-20zM6 0v8h-2v-6h-2v-2zM4 16.438v1.563h4v2h-6v-4.563l4-1.875v-1.563h-4v-2h6v4.563zM8 22v10h-6v-2h4v-2h-4v-2h4v-2h-4v-2z"></path>
</symbol>
<symbol id="icon-list" viewBox="0 0 32 32">
<title>list</title>
<path d="M0 0h8v8h-8zM12 2h20v4h-20zM0 12h8v8h-8zM12 14h20v4h-20zM0 24h8v8h-8zM12 26h20v4h-20z"></path>
</symbol>
<symbol id="icon-list2" viewBox="0 0 32 32">
<title>list2</title>
<path d="M12 2h20v4h-20v-4zM12 14h20v4h-20v-4zM12 26h20v4h-20v-4zM0 4c0-2.209 1.791-4 4-4s4 1.791 4 4c0 2.209-1.791 4-4 4s-4-1.791-4-4zM0 16c0-2.209 1.791-4 4-4s4 1.791 4 4c0 2.209-1.791 4-4 4s-4-1.791-4-4zM0 28c0-2.209 1.791-4 4-4s4 1.791 4 4c0 2.209-1.791 4-4 4s-4-1.791-4-4z"></path>
</symbol>
<symbol id="icon-tree" viewBox="0 0 32 32">
<title>tree</title>
<path d="M30.5 24h-0.5v-6.5c0-1.93-1.57-3.5-3.5-3.5h-8.5v-4h0.5c0.825 0 1.5-0.675 1.5-1.5v-5c0-0.825-0.675-1.5-1.5-1.5h-5c-0.825 0-1.5 0.675-1.5 1.5v5c0 0.825 0.675 1.5 1.5 1.5h0.5v4h-8.5c-1.93 0-3.5 1.57-3.5 3.5v6.5h-0.5c-0.825 0-1.5 0.675-1.5 1.5v5c0 0.825 0.675 1.5 1.5 1.5h5c0.825 0 1.5-0.675 1.5-1.5v-5c0-0.825-0.675-1.5-1.5-1.5h-0.5v-6h8v6h-0.5c-0.825 0-1.5 0.675-1.5 1.5v5c0 0.825 0.675 1.5 1.5 1.5h5c0.825 0 1.5-0.675 1.5-1.5v-5c0-0.825-0.675-1.5-1.5-1.5h-0.5v-6h8v6h-0.5c-0.825 0-1.5 0.675-1.5 1.5v5c0 0.825 0.675 1.5 1.5 1.5h5c0.825 0 1.5-0.675 1.5-1.5v-5c0-0.825-0.675-1.5-1.5-1.5zM6 30h-4v-4h4v4zM18 30h-4v-4h4v4zM14 8v-4h4v4h-4zM30 30h-4v-4h4v4z"></path>
</symbol>
<symbol id="icon-menu" viewBox="0 0 32 32">
<title>menu</title>
<path d="M2 6h28v6h-28zM2 14h28v6h-28zM2 22h28v6h-28z"></path>
</symbol>
<symbol id="icon-menu2" viewBox="0 0 44 32">
<title>menu2</title>
<path d="M0 6h28v6h-28v-6zM0 14h28v6h-28v-6zM0 22h28v6h-28v-6z"></path>
<path d="M31 18l6 6 6-6z"></path>
<path d="M43 16l-6-6-6 6z"></path>
</symbol>
<symbol id="icon-menu3" viewBox="0 0 44 32">
<title>menu3</title>
<path d="M0 6h28v6h-28v-6zM0 14h28v6h-28v-6zM0 22h28v6h-28v-6z"></path>
<path d="M31 14l6 6 6-6z"></path>
</symbol>
<symbol id="icon-menu4" viewBox="0 0 44 32">
<title>menu4</title>
<path d="M0 6h28v6h-28v-6zM0 14h28v6h-28v-6zM0 22h28v6h-28v-6z"></path>
<path d="M31 20l6-6 6 6z"></path>
</symbol>
<symbol id="icon-cloud" viewBox="0 0 32 32">
<title>cloud</title>
<path d="M32 20.548c0-2.565-1.771-4.716-4.156-5.296-0.101-4.022-3.389-7.252-7.433-7.252-2.369 0-4.477 1.109-5.839 2.835-0.764-0.987-1.959-1.624-3.303-1.624-2.307 0-4.176 1.871-4.176 4.179 0 0.201 0.015 0.399 0.043 0.592-0.351-0.063-0.711-0.098-1.080-0.098-3.344-0-6.054 2.712-6.054 6.058s2.71 6.058 6.054 6.058l20.508-0c3.004-0.006 5.438-2.444 5.438-5.451z"></path>
</symbol>
<symbol id="icon-cloud-download" viewBox="0 0 32 32">
<title>cloud-download</title>
<path d="M27.844 11.252c-0.101-4.022-3.389-7.252-7.433-7.252-2.369 0-4.477 1.109-5.839 2.835-0.764-0.987-1.959-1.624-3.303-1.624-2.307 0-4.176 1.871-4.176 4.179 0 0.201 0.015 0.399 0.043 0.592-0.351-0.063-0.711-0.098-1.080-0.098-3.344-0-6.054 2.712-6.054 6.058s2.71 6.058 6.054 6.058h2.868l7.078 7.328 7.078-7.328 3.484-0c3.004-0.006 5.438-2.444 5.438-5.451 0-2.565-1.771-4.716-4.156-5.296zM16 26l-6-6h4v-6h4v6h4l-6 6z"></path>
</symbol>
<symbol id="icon-cloud-upload" viewBox="0 0 32 32">
<title>cloud-upload</title>
<path d="M27.883 12.078c0.076-0.347 0.117-0.708 0.117-1.078 0-2.761-2.239-5-5-5-0.444 0-0.875 0.058-1.285 0.167-0.775-2.417-3.040-4.167-5.715-4.167-2.73 0-5.033 1.823-5.76 4.318-0.711-0.207-1.462-0.318-2.24-0.318-4.418 0-8 3.582-8 8s3.582 8 8 8h4v6h8v-6h7c2.761 0 5-2.239 5-5 0-2.46-1.777-4.505-4.117-4.922zM18 20v6h-4v-6h-5l7-7 7 7h-5z"></path>
</symbol>
<symbol id="icon-cloud-check" viewBox="0 0 32 32">
<title>cloud-check</title>
<path d="M27.883 16.078c0.076-0.347 0.117-0.708 0.117-1.078 0-2.761-2.239-5-5-5-0.445 0-0.875 0.058-1.285 0.167-0.775-2.417-3.040-4.167-5.715-4.167-2.73 0-5.033 1.823-5.76 4.318-0.711-0.207-1.462-0.318-2.24-0.318-4.418 0-8 3.582-8 8s3.582 8 8 8h19c2.761 0 5-2.239 5-5 0-2.46-1.777-4.505-4.117-4.922zM13 24l-5-5 2-2 3 3 7-7 2 2-9 9z"></path>
</symbol>
<symbol id="icon-sphere" viewBox="0 0 32 32">
<title>sphere</title>
<path d="M15 2c-8.284 0-15 6.716-15 15s6.716 15 15 15c8.284 0 15-6.716 15-15s-6.716-15-15-15zM23.487 22c0.268-1.264 0.437-2.606 0.492-4h3.983c-0.104 1.381-0.426 2.722-0.959 4h-3.516zM6.513 12c-0.268 1.264-0.437 2.606-0.492 4h-3.983c0.104-1.381 0.426-2.722 0.959-4h3.516zM21.439 12c0.3 1.28 0.481 2.62 0.54 4h-5.979v-4h5.439zM16 10v-5.854c0.456 0.133 0.908 0.355 1.351 0.668 0.831 0.586 1.625 1.488 2.298 2.609 0.465 0.775 0.867 1.638 1.203 2.578h-4.852zM10.351 7.422c0.673-1.121 1.467-2.023 2.298-2.609 0.443-0.313 0.895-0.535 1.351-0.668v5.854h-4.852c0.336-0.94 0.738-1.803 1.203-2.578zM14 12v4h-5.979c0.059-1.38 0.24-2.72 0.54-4h5.439zM2.997 22c-0.533-1.278-0.854-2.619-0.959-4h3.983c0.055 1.394 0.224 2.736 0.492 4h-3.516zM8.021 18h5.979v4h-5.439c-0.3-1.28-0.481-2.62-0.54-4zM14 24v5.854c-0.456-0.133-0.908-0.355-1.351-0.668-0.831-0.586-1.625-1.488-2.298-2.609-0.465-0.775-0.867-1.638-1.203-2.578h4.852zM19.649 26.578c-0.673 1.121-1.467 2.023-2.298 2.609-0.443 0.312-0.895 0.535-1.351 0.668v-5.854h4.852c-0.336 0.94-0.738 1.802-1.203 2.578zM16 22v-4h5.979c-0.059 1.38-0.24 2.72-0.54 4h-5.439zM23.98 16c-0.055-1.394-0.224-2.736-0.492-4h3.516c0.533 1.278 0.855 2.619 0.959 4h-3.983zM25.958 10h-2.997c-0.582-1.836-1.387-3.447-2.354-4.732 1.329 0.636 2.533 1.488 3.585 2.54 0.671 0.671 1.261 1.404 1.766 2.192zM5.808 7.808c1.052-1.052 2.256-1.904 3.585-2.54-0.967 1.285-1.771 2.896-2.354 4.732h-2.997c0.504-0.788 1.094-1.521 1.766-2.192zM4.042 24h2.997c0.583 1.836 1.387 3.447 2.354 4.732-1.329-0.636-2.533-1.488-3.585-2.54-0.671-0.671-1.261-1.404-1.766-2.192zM24.192 26.192c-1.052 1.052-2.256 1.904-3.585 2.54 0.967-1.285 1.771-2.896 2.354-4.732h2.997c-0.504 0.788-1.094 1.521-1.766 2.192z"></path>
</symbol>
<symbol id="icon-earth" viewBox="0 0 32 32">
<title>earth</title>
<path d="M16 0c-8.837 0-16 7.163-16 16s7.163 16 16 16 16-7.163 16-16-7.163-16-16-16zM16 30c-1.967 0-3.84-0.407-5.538-1.139l7.286-8.197c0.163-0.183 0.253-0.419 0.253-0.664v-3c0-0.552-0.448-1-1-1-3.531 0-7.256-3.671-7.293-3.707-0.188-0.188-0.442-0.293-0.707-0.293h-4c-0.552 0-1 0.448-1 1v6c0 0.379 0.214 0.725 0.553 0.894l3.447 1.724v5.871c-3.627-2.53-6-6.732-6-11.489 0-2.147 0.484-4.181 1.348-6h3.652c0.265 0 0.52-0.105 0.707-0.293l4-4c0.188-0.188 0.293-0.442 0.293-0.707v-2.419c1.268-0.377 2.61-0.581 4-0.581 2.2 0 4.281 0.508 6.134 1.412-0.13 0.109-0.256 0.224-0.376 0.345-1.133 1.133-1.757 2.64-1.757 4.243s0.624 3.109 1.757 4.243c1.139 1.139 2.663 1.758 4.239 1.758 0.099 0 0.198-0.002 0.297-0.007 0.432 1.619 1.211 5.833-0.263 11.635-0.014 0.055-0.022 0.109-0.026 0.163-2.541 2.596-6.084 4.208-10.004 4.208z"></path>
</symbol>
<symbol id="icon-checkmark" viewBox="0 0 32 32">
<title>checkmark</title>
<path d="M27 4l-15 15-7-7-5 5 12 12 20-20z"></path>
</symbol>
<symbol id="icon-embed" viewBox="0 0 32 32">
<title>embed</title>
<path d="M18 23l3 3 10-10-10-10-3 3 7 7z"></path>
<path d="M14 9l-3-3-10 10 10 10 3-3-7-7z"></path>
</symbol>
<symbol id="icon-embed2" viewBox="0 0 40 32">
<title>embed2</title>
<path d="M26 23l3 3 10-10-10-10-3 3 7 7z"></path>
<path d="M14 9l-3-3-10 10 10 10 3-3-7-7z"></path>
<path d="M21.916 4.704l2.171 0.592-6 22.001-2.171-0.592 6-22.001z"></path>
</symbol>
<symbol id="icon-terminal" viewBox="0 0 32 32">
<title>terminal</title>
<path d="M0 2v28h32v-28h-32zM30 28h-28v-24h28v24zM28 6h-24v20h24v-20zM14 16h-2v2h-2v2h-2v-2h2v-2h2v-2h-2v-2h-2v-2h2v2h2v2h2v2zM22 20h-6v-2h6v2z"></path>
</symbol>
<symbol id="icon-share2" viewBox="0 0 32 32">
<title>share2</title>
<path d="M27 22c-1.411 0-2.685 0.586-3.594 1.526l-13.469-6.734c0.041-0.258 0.063-0.522 0.063-0.791s-0.022-0.534-0.063-0.791l13.469-6.734c0.909 0.94 2.183 1.526 3.594 1.526 2.761 0 5-2.239 5-5s-2.239-5-5-5-5 2.239-5 5c0 0.269 0.022 0.534 0.063 0.791l-13.469 6.734c-0.909-0.94-2.183-1.526-3.594-1.526-2.761 0-5 2.239-5 5s2.239 5 5 5c1.411 0 2.685-0.586 3.594-1.526l13.469 6.734c-0.041 0.258-0.063 0.522-0.063 0.791 0 2.761 2.239 5 5 5s5-2.239 5-5c0-2.761-2.239-5-5-5z"></path>
</symbol>
<symbol id="icon-mail4" viewBox="0 0 32 32">
<title>mail4</title>
<path d="M16 0c-8.837 0-16 7.163-16 16s7.163 16 16 16 16-7.163 16-16-7.163-16-16-16zM8 8h16c0.286 0 0.563 0.061 0.817 0.177l-8.817 10.286-8.817-10.287c0.254-0.116 0.531-0.177 0.817-0.177zM6 22v-12c0-0.042 0.002-0.084 0.004-0.125l5.864 6.842-5.8 5.8c-0.045-0.167-0.069-0.34-0.069-0.517zM24 24h-16c-0.177 0-0.35-0.024-0.517-0.069l5.691-5.691 2.826 3.297 2.826-3.297 5.691 5.691c-0.167 0.045-0.34 0.069-0.517 0.069zM26 22c0 0.177-0.024 0.35-0.069 0.517l-5.8-5.8 5.865-6.842c0.003 0.041 0.004 0.083 0.004 0.125v12z"></path>
</symbol>
<symbol id="icon-amazon" viewBox="0 0 32 32">
<title>amazon</title>
<path d="M28.925 27.663c-3.506 2.587-8.581 3.962-12.956 3.962-6.131 0-11.65-2.262-15.825-6.038-0.325-0.294-0.038-0.7 0.356-0.469 4.506 2.625 10.081 4.2 15.838 4.2 3.881 0 8.15-0.806 12.081-2.475 0.587-0.25 1.087 0.394 0.506 0.819z"></path>
<path d="M30.381 26c-0.45-0.575-2.962-0.275-4.094-0.137-0.344 0.038-0.394-0.256-0.087-0.475 2.006-1.406 5.294-1 5.675-0.531 0.387 0.475-0.1 3.769-1.981 5.344-0.288 0.244-0.563 0.113-0.438-0.206 0.431-1.056 1.375-3.419 0.925-3.994z"></path>
<path d="M22.106 23.675l0.006 0.006c0.775-0.681 2.169-1.9 2.956-2.556 0.313-0.25 0.256-0.669 0.012-1.019-0.706-0.975-1.456-1.769-1.456-3.569v-6c0-2.544 0.175-4.875-1.694-6.625-1.475-1.413-3.925-1.913-5.8-1.913-3.662 0-7.75 1.369-8.606 5.894-0.094 0.481 0.263 0.738 0.575 0.806l3.731 0.406c0.35-0.019 0.6-0.363 0.669-0.713 0.319-1.556 1.625-2.313 3.094-2.313 0.794 0 1.694 0.287 2.163 1 0.538 0.794 0.469 1.875 0.469 2.794v0.5c-2.231 0.25-5.15 0.412-7.238 1.331-2.412 1.044-4.106 3.169-4.106 6.294 0 4 2.519 6 5.763 6 2.738 0 4.231-0.644 6.344-2.806 0.7 1.012 0.925 1.506 2.206 2.569 0.294 0.156 0.656 0.144 0.913-0.087zM18.225 14.287c0 1.5 0.038 2.75-0.719 4.081-0.613 1.087-1.581 1.75-2.662 1.75-1.475 0-2.338-1.125-2.338-2.788 0-3.281 2.944-3.875 5.725-3.875v0.831z"></path>
</symbol>
<symbol id="icon-google" viewBox="0 0 32 32">
<title>google</title>
<path d="M16.319 13.713v5.487h9.075c-0.369 2.356-2.744 6.9-9.075 6.9-5.463 0-9.919-4.525-9.919-10.1s4.456-10.1 9.919-10.1c3.106 0 5.188 1.325 6.375 2.469l4.344-4.181c-2.788-2.612-6.4-4.188-10.719-4.188-8.844 0-16 7.156-16 16s7.156 16 16 16c9.231 0 15.363-6.494 15.363-15.631 0-1.050-0.113-1.85-0.25-2.65l-15.113-0.006z"></path>
</symbol>
<symbol id="icon-hangouts" viewBox="0 0 32 32">
<title>hangouts</title>
<path d="M15.994 0c-7.631 0-13.819 6.188-13.819 13.819 0 7.231 6.588 13.094 13.819 13.094v5.087c8.394-4.256 13.831-11.113 13.831-18.181 0-7.631-6.2-13.819-13.831-13.819zM14 16c0 1.656-0.894 3-2 3v-3h-4v-6h6v6zM24 16c0 1.656-0.894 3-2 3v-3h-4v-6h6v6z"></path>
</symbol>
<symbol id="icon-google-drive" viewBox="0 0 32 32">
<title>google-drive</title>
<path d="M13.688 20l-5.769 10h18.144l5.769-10z"></path>
<path d="M31.012 18l-9.238-16h-11.55l9.238 16z"></path>
<path d="M9.069 4l-9.069 15.712 5.775 10 9.069-15.713z"></path>
</symbol>
<symbol id="icon-facebook2" viewBox="0 0 32 32">
<title>facebook2</title>
<path d="M29 0h-26c-1.65 0-3 1.35-3 3v26c0 1.65 1.35 3 3 3h13v-14h-4v-4h4v-2c0-3.306 2.694-6 6-6h4v4h-4c-1.1 0-2 0.9-2 2v2h6l-1 4h-5v14h9c1.65 0 3-1.35 3-3v-26c0-1.65-1.35-3-3-3z"></path>
</symbol>
<symbol id="icon-twitch" viewBox="0 0 32 32">
<title>twitch</title>
<path d="M3 0l-3 5v23h8v4h4l4-4h5l9-9v-19h-27zM26 17l-5 5h-5l-4 4v-4h-6v-18h20v13z"></path>
<path d="M19 8h3v8h-3v-8z"></path>
<path d="M13 8h3v8h-3v-8z"></path>
</symbol>
<symbol id="icon-vimeo" viewBox="0 0 32 32">
<title>vimeo</title>
<path d="M31.988 8.563c-0.144 3.113-2.319 7.381-6.525 12.794-4.35 5.65-8.031 8.481-11.044 8.481-1.863 0-3.444-1.719-4.731-5.163-0.863-3.156-1.719-6.313-2.581-9.469-0.956-3.444-1.981-5.162-3.081-5.162-0.237 0-1.075 0.506-2.513 1.506l-1.506-1.938c1.581-1.387 3.138-2.775 4.669-4.162 2.106-1.819 3.688-2.775 4.744-2.875 2.487-0.237 4.025 1.463 4.6 5.106 0.619 3.931 1.050 6.375 1.294 7.331 0.719 3.263 1.506 4.894 2.369 4.894 0.669 0 1.675-1.056 3.019-3.175 1.337-2.113 2.056-3.725 2.156-4.831 0.194-1.825-0.525-2.744-2.156-2.744-0.769 0-1.556 0.175-2.369 0.525 1.575-5.15 4.575-7.65 9.012-7.506 3.281 0.087 4.831 2.219 4.644 6.388z"></path>
</symbol>
<symbol id="icon-steam" viewBox="0 0 32 32">
<title>steam</title>
<path d="M22 9c0-1.657 1.343-3 3-3s3 1.343 3 3c0 1.657-1.343 3-3 3s-3-1.343-3-3zM29.95 4.050c-2.734-2.734-7.166-2.734-9.9 0-1.112 1.112-1.771 2.505-1.979 3.95v0l-6.397 9.695c-0.86 0.044-1.712 0.263-2.499 0.657l-4.934-3.857c-1.142-0.893-2.792-0.691-3.685 0.451s-0.691 2.792 0.452 3.685l4.873 3.809c-0.53 2.087 0.021 4.392 1.654 6.025 2.466 2.466 6.464 2.466 8.929 0 1.515-1.515 2.098-3.607 1.752-5.568l7.783-6.968c1.445-0.207 2.838-0.867 3.95-1.979 2.734-2.734 2.734-7.166 0-9.899zM12 28.209c-2.325 0-4.209-1.884-4.209-4.209 0-0.022 0.001-0.044 0.002-0.066l2.091 1.634c0.48 0.375 1.049 0.557 1.615 0.557 0.78 0 1.552-0.346 2.070-1.009 0.893-1.142 0.691-2.792-0.451-3.685l-1.984-1.551c0.28-0.059 0.57-0.090 0.868-0.090 2.325 0 4.209 1.884 4.209 4.209s-1.885 4.209-4.209 4.209zM25 14c-2.761 0-5-2.239-5-5s2.239-5 5-5 5 2.239 5 5-2.239 5-5 5z"></path>
</symbol>
<symbol id="icon-github" viewBox="0 0 32 32">
<title>github</title>
<path d="M16 0.395c-8.836 0-16 7.163-16 16 0 7.069 4.585 13.067 10.942 15.182 0.8 0.148 1.094-0.347 1.094-0.77 0-0.381-0.015-1.642-0.022-2.979-4.452 0.968-5.391-1.888-5.391-1.888-0.728-1.849-1.776-2.341-1.776-2.341-1.452-0.993 0.11-0.973 0.11-0.973 1.606 0.113 2.452 1.649 2.452 1.649 1.427 2.446 3.743 1.739 4.656 1.33 0.143-1.034 0.558-1.74 1.016-2.14-3.554-0.404-7.29-1.777-7.29-7.907 0-1.747 0.625-3.174 1.649-4.295-0.166-0.403-0.714-2.030 0.155-4.234 0 0 1.344-0.43 4.401 1.64 1.276-0.355 2.645-0.532 4.005-0.539 1.359 0.006 2.729 0.184 4.008 0.539 3.054-2.070 4.395-1.64 4.395-1.64 0.871 2.204 0.323 3.831 0.157 4.234 1.026 1.12 1.647 2.548 1.647 4.295 0 6.145-3.743 7.498-7.306 7.895 0.574 0.497 1.085 1.47 1.085 2.963 0 2.141-0.019 3.864-0.019 4.391 0 0.426 0.288 0.925 1.099 0.768 6.354-2.118 10.933-8.113 10.933-15.18 0-8.837-7.164-16-16-16z"></path>
</symbol>
<symbol id="icon-appleinc" viewBox="0 0 32 32">
<title>appleinc</title>
<path d="M24.734 17.003c-0.040-4.053 3.305-5.996 3.454-6.093-1.88-2.751-4.808-3.127-5.851-3.171-2.492-0.252-4.862 1.467-6.127 1.467-1.261 0-3.213-1.43-5.28-1.392-2.716 0.040-5.221 1.579-6.619 4.012-2.822 4.897-0.723 12.151 2.028 16.123 1.344 1.944 2.947 4.127 5.051 4.049 2.026-0.081 2.793-1.311 5.242-1.311s3.138 1.311 5.283 1.271c2.18-0.041 3.562-1.981 4.897-3.931 1.543-2.255 2.179-4.439 2.216-4.551-0.048-0.022-4.252-1.632-4.294-6.473zM20.705 5.11c1.117-1.355 1.871-3.235 1.665-5.11-1.609 0.066-3.559 1.072-4.713 2.423-1.036 1.199-1.942 3.113-1.699 4.951 1.796 0.14 3.629-0.913 4.747-2.264z"></path>
</symbol>
<symbol id="icon-android" viewBox="0 0 32 32">
<title>android</title>
<path d="M28 12c-1.1 0-2 0.9-2 2v8c0 1.1 0.9 2 2 2s2-0.9 2-2v-8c0-1.1-0.9-2-2-2zM4 12c-1.1 0-2 0.9-2 2v8c0 1.1 0.9 2 2 2s2-0.9 2-2v-8c0-1.1-0.9-2-2-2zM7 23c0 1.657 1.343 3 3 3v0 4c0 1.1 0.9 2 2 2s2-0.9 2-2v-4h4v4c0 1.1 0.9 2 2 2s2-0.9 2-2v-4c1.657 0 3-1.343 3-3v-11h-18v11z"></path>
<path d="M24.944 10c-0.304-2.746-1.844-5.119-4.051-6.551l1.001-2.001c0.247-0.494 0.047-1.095-0.447-1.342s-1.095-0.047-1.342 0.447l-1.004 2.009-0.261-0.104c-0.893-0.297-1.848-0.458-2.84-0.458s-1.947 0.161-2.84 0.458l-0.261 0.104-1.004-2.009c-0.247-0.494-0.848-0.694-1.342-0.447s-0.694 0.848-0.447 1.342l1.001 2.001c-2.207 1.433-3.747 3.805-4.051 6.551v1h17.944v-1h-0.056zM13 8c-0.552 0-1-0.448-1-1s0.447-0.999 0.998-1c0.001 0 0.002 0 0.003 0s0.001-0 0.002-0c0.551 0.001 0.998 0.448 0.998 1s-0.448 1-1 1zM19 8c-0.552 0-1-0.448-1-1s0.446-0.999 0.998-1c0 0 0.001 0 0.002 0s0.002-0 0.003-0c0.551 0.001 0.998 0.448 0.998 1s-0.448 1-1 1z"></path>
</symbol>
<symbol id="icon-windows8" viewBox="0 0 32 32">
<title>windows8</title>
<path d="M0.011 16l-0.011-9.752 12-1.63v11.382zM14 4.328l15.996-2.328v14h-15.996zM30 18l-0.004 14-15.996-2.25v-11.75zM12 29.495l-11.99-1.644-0.001-9.851h11.991z"></path>
</symbol>
<symbol id="icon-soundcloud" viewBox="0 0 32 32">
<title>soundcloud</title>
<path d="M27.874 16.069c-0.565 0-1.105 0.11-1.596 0.308-0.328-3.574-3.447-6.377-7.25-6.377-0.931 0-1.834 0.176-2.635 0.474-0.311 0.116-0.393 0.235-0.393 0.466v12.585c0 0.243 0.195 0.445 0.441 0.469 0.011 0.001 11.36 0.007 11.434 0.007 2.278 0 4.125-1.776 4.125-3.965s-1.848-3.966-4.126-3.966zM12.5 24h1l0.5-7.007-0.5-6.993h-1l-0.5 6.993zM9.5 24h-1l-0.5-5.086 0.5-4.914h1l0.5 5zM4.5 24h1l0.5-4-0.5-4h-1l-0.5 4zM0.5 22h1l0.5-2-0.5-2h-1l-0.5 2z"></path>
</symbol>
<symbol id="icon-skype" viewBox="0 0 32 32">
<title>skype</title>
<path d="M13.3 1.169c-0.050-0.031-0.106-0.056-0.156-0.081-0.056 0.012-0.106 0.019-0.162 0.031l0.319 0.050z"></path>
<path d="M1.15 13.156c-0.012 0.056-0.019 0.113-0.025 0.162 0.031 0.050 0.050 0.1 0.081 0.15l-0.056-0.313z"></path>
<path d="M30.837 18.831c0.012-0.056 0.019-0.113 0.031-0.169-0.031-0.050-0.050-0.1-0.081-0.15l0.050 0.319z"></path>
<path d="M18.5 30.719c0.050 0.031 0.106 0.056 0.156 0.081 0.056-0.012 0.113-0.019 0.169-0.025l-0.325-0.056z"></path>
<path d="M30.869 18.663c-0.012 0.056-0.019 0.113-0.031 0.169l-0.056-0.325c0.031 0.056 0.056 0.106 0.087 0.156 0.163-0.9 0.25-1.819 0.25-2.738 0-2.037-0.4-4.019-1.188-5.881-0.762-1.8-1.85-3.419-3.238-4.806s-3.006-2.475-4.8-3.237c-1.863-0.788-3.844-1.188-5.881-1.188-0.963 0-1.925 0.088-2.863 0.269 0 0-0.006 0-0.006 0 0.050 0.025 0.106 0.050 0.156 0.081l-0.319-0.050c0.056-0.012 0.106-0.019 0.162-0.031-1.287-0.681-2.731-1.050-4.194-1.050-2.388 0-4.638 0.931-6.325 2.619s-2.619 3.937-2.619 6.325c0 1.519 0.394 3.019 1.125 4.338 0.012-0.056 0.019-0.113 0.025-0.162l0.056 0.319c-0.031-0.050-0.056-0.1-0.081-0.15-0.15 0.856-0.225 1.731-0.225 2.606 0 2.038 0.4 4.019 1.188 5.881 0.763 1.8 1.85 3.413 3.237 4.8s3.006 2.475 4.806 3.238c1.863 0.788 3.844 1.188 5.881 1.188 0.887 0 1.775-0.081 2.644-0.238-0.050-0.031-0.1-0.056-0.156-0.081l0.325 0.056c-0.056 0.012-0.113 0.019-0.169 0.025 1.337 0.756 2.856 1.163 4.4 1.163 2.387 0 4.637-0.931 6.325-2.619s2.619-3.938 2.619-6.325c-0.006-1.519-0.4-3.019-1.137-4.35zM16.069 25.181c-5.369 0-7.769-2.637-7.769-4.619 0-1.012 0.75-1.725 1.781-1.725 2.3 0 1.7 3.3 5.988 3.3 2.194 0 3.406-1.194 3.406-2.413 0-0.731-0.363-1.544-1.806-1.9l-4.775-1.194c-3.844-0.963-4.544-3.044-4.544-5 0-4.056 3.819-5.581 7.406-5.581 3.306 0 7.2 1.825 7.2 4.263 0 1.044-0.906 1.65-1.938 1.65-1.962 0-1.6-2.713-5.55-2.713-1.963 0-3.044 0.887-3.044 2.156s1.55 1.675 2.894 1.981l3.538 0.787c3.869 0.863 4.85 3.125 4.85 5.25 0 3.294-2.531 5.756-7.637 5.756z"></path>
</symbol>
<symbol id="icon-reddit" viewBox="0 0 32 32">
<title>reddit</title>
<path d="M8 20c0-1.105 0.895-2 2-2s2 0.895 2 2c0 1.105-0.895 2-2 2s-2-0.895-2-2zM20 20c0-1.105 0.895-2 2-2s2 0.895 2 2c0 1.105-0.895 2-2 2s-2-0.895-2-2zM20.097 24.274c0.515-0.406 1.262-0.317 1.668 0.198s0.317 1.262-0.198 1.668c-1.434 1.13-3.619 1.86-5.567 1.86s-4.133-0.73-5.567-1.86c-0.515-0.406-0.604-1.153-0.198-1.668s1.153-0.604 1.668-0.198c0.826 0.651 2.46 1.351 4.097 1.351s3.271-0.7 4.097-1.351zM32 16c0-2.209-1.791-4-4-4-1.504 0-2.812 0.83-3.495 2.057-2.056-1.125-4.561-1.851-7.29-2.019l2.387-5.36 4.569 1.319c0.411 1.167 1.522 2.004 2.83 2.004 1.657 0 3-1.343 3-3s-1.343-3-3-3c-1.142 0-2.136 0.639-2.642 1.579l-5.091-1.47c-0.57-0.164-1.173 0.116-1.414 0.658l-3.243 7.282c-2.661 0.187-5.102 0.907-7.114 2.007-0.683-1.227-1.993-2.056-3.496-2.056-2.209 0-4 1.791-4 4 0 1.635 0.981 3.039 2.387 3.659-0.252 0.751-0.387 1.535-0.387 2.341 0 5.523 6.268 10 14 10s14-4.477 14-10c0-0.806-0.134-1.589-0.387-2.34 1.405-0.62 2.387-2.025 2.387-3.66zM27 5.875c0.621 0 1.125 0.504 1.125 1.125s-0.504 1.125-1.125 1.125-1.125-0.504-1.125-1.125 0.504-1.125 1.125-1.125zM2 16c0-1.103 0.897-2 2-2 0.797 0 1.487 0.469 1.808 1.145-1.045 0.793-1.911 1.707-2.552 2.711-0.735-0.296-1.256-1.016-1.256-1.856zM16 29.625c-6.42 0-11.625-3.414-11.625-7.625s5.205-7.625 11.625-7.625c6.42 0 11.625 3.414 11.625 7.625s-5.205 7.625-11.625 7.625zM28.744 17.856c-0.641-1.003-1.507-1.918-2.552-2.711 0.321-0.676 1.011-1.145 1.808-1.145 1.103 0 2 0.897 2 2 0 0.84-0.52 1.56-1.256 1.856z"></path>
</symbol>
<symbol id="icon-linkedin2" viewBox="0 0 32 32">
<title>linkedin2</title>
<path d="M12 12h5.535v2.837h0.079c0.77-1.381 2.655-2.837 5.464-2.837 5.842 0 6.922 3.637 6.922 8.367v9.633h-5.769v-8.54c0-2.037-0.042-4.657-3.001-4.657-3.005 0-3.463 2.218-3.463 4.509v8.688h-5.767v-18z"></path>
<path d="M2 12h6v18h-6v-18z"></path>
<path d="M8 7c0 1.657-1.343 3-3 3s-3-1.343-3-3c0-1.657 1.343-3 3-3s3 1.343 3 3z"></path>
</symbol>
<symbol id="icon-pinterest" viewBox="0 0 32 32">
<title>pinterest</title>
<path d="M16 2.138c-7.656 0-13.863 6.206-13.863 13.863 0 5.875 3.656 10.887 8.813 12.906-0.119-1.094-0.231-2.781 0.050-3.975 0.25-1.081 1.625-6.887 1.625-6.887s-0.412-0.831-0.412-2.056c0-1.925 1.119-3.369 2.506-3.369 1.181 0 1.756 0.887 1.756 1.95 0 1.188-0.756 2.969-1.15 4.613-0.331 1.381 0.688 2.506 2.050 2.506 2.462 0 4.356-2.6 4.356-6.35 0-3.319-2.387-5.638-5.787-5.638-3.944 0-6.256 2.956-6.256 6.019 0 1.194 0.456 2.469 1.031 3.163 0.113 0.137 0.131 0.256 0.094 0.4-0.106 0.438-0.338 1.381-0.387 1.575-0.063 0.256-0.2 0.306-0.463 0.188-1.731-0.806-2.813-3.337-2.813-5.369 0-4.375 3.175-8.387 9.156-8.387 4.806 0 8.544 3.425 8.544 8.006 0 4.775-3.012 8.625-7.194 8.625-1.406 0-2.725-0.731-3.175-1.594 0 0-0.694 2.644-0.863 3.294-0.313 1.206-1.156 2.712-1.725 3.631 1.3 0.4 2.675 0.619 4.106 0.619 7.656 0 13.863-6.206 13.863-13.863 0-7.662-6.206-13.869-13.863-13.869z"></path>
</symbol>
<symbol id="icon-paypal" viewBox="0 0 32 32">
<title>paypal</title>
<path d="M29.063 9.644c-1.494 6.631-6.106 10.131-13.375 10.131h-2.419l-1.681 10.675h-2.025l-0.106 0.688c-0.069 0.456 0.281 0.863 0.738 0.863h5.175c0.613 0 1.131-0.444 1.231-1.050l0.050-0.262 0.975-6.181 0.063-0.337c0.094-0.606 0.619-1.050 1.231-1.050h0.769c5.012 0 8.938-2.038 10.088-7.925 0.431-2.238 0.269-4.137-0.712-5.55z"></path>
<path d="M25.969 2.413c-1.481-1.688-4.163-2.413-7.587-2.413h-9.944c-0.7 0-1.3 0.506-1.406 1.2l-4.144 26.262c-0.081 0.519 0.319 0.988 0.844 0.988h6.144l1.544-9.781-0.050 0.306c0.106-0.694 0.7-1.2 1.4-1.2h2.919c5.731 0 10.219-2.325 11.531-9.063 0.038-0.2 0.075-0.394 0.1-0.581 0.387-2.487 0-4.188-1.35-5.719z"></path>
</symbol>
<symbol id="icon-chrome" viewBox="0 0 32 32">
<title>chrome</title>
<path d="M8.071 13.954l-4.579-7.931c2.932-3.671 7.445-6.023 12.508-6.023 5.857 0 10.978 3.148 13.767 7.844h-13.055c-0.235-0.020-0.472-0.031-0.711-0.031-3.809 0-7.018 2.614-7.929 6.142zM21.728 10.156h9.171c0.711 1.81 1.101 3.781 1.101 5.844 0 8.776-7.066 15.9-15.818 15.998l6.544-11.334c0.921-1.324 1.462-2.932 1.462-4.664 0-2.287-0.943-4.357-2.459-5.844zM10.188 16c0-3.205 2.607-5.813 5.813-5.813s5.813 2.607 5.813 5.813c0 3.205-2.608 5.813-5.813 5.813s-5.813-2.608-5.813-5.813zM18.193 23.889l-4.581 7.934c-7.704-1.153-13.613-7.797-13.613-15.822 0-2.851 0.746-5.526 2.053-7.845l6.532 11.314c1.308 2.785 4.14 4.718 7.415 4.718 0.759 0 1.495-0.104 2.193-0.299z"></path>
</symbol>
<symbol id="icon-firefox" viewBox="0 0 32 32">
<title>firefox</title>
<path d="M31.954 10.442l-0.371 2.377c0 0-0.53-4.402-1.179-6.047-0.995-2.521-1.438-2.501-1.441-2.498 0.667 1.694 0.546 2.604 0.546 2.604s-1.181-3.219-4.303-4.243c-3.459-1.134-5.33-0.824-5.547-0.765-0.033-0-0.064-0-0.095-0 0.026 0.002 0.050 0.005 0.076 0.007-0.001 0.001-0.003 0.001-0.003 0.002 0.014 0.017 3.822 0.666 4.497 1.594 0 0-1.617 0-3.227 0.464-0.073 0.021 5.923 0.749 7.148 6.74 0 0-0.657-1.371-1.47-1.604 0.535 1.626 0.397 4.712-0.112 6.245-0.066 0.197-0.133-0.853-1.135-1.305 0.321 2.301-0.019 5.952-1.616 6.957-0.124 0.078 1.001-3.603 0.226-2.18-4.46 6.838-9.731 3.155-12.101 1.535 1.215 0.264 3.52-0.041 4.541-0.8 0.001-0.001 0.002-0.002 0.004-0.003 1.108-0.758 1.765-1.311 2.354-1.18s0.982-0.46 0.524-0.985c-0.459-0.526-1.572-1.249-3.079-0.855-1.063 0.278-2.379 1.454-4.389 0.264-1.543-0.914-1.688-1.673-1.702-2.199 0.038-0.186 0.086-0.361 0.143-0.52 0.178-0.496 0.716-0.646 1.015-0.764 0.508 0.087 0.946 0.246 1.405 0.481 0.006-0.153 0.008-0.356-0.001-0.586 0.044-0.088 0.017-0.352-0.054-0.674-0.041-0.322-0.107-0.655-0.211-0.959 0-0 0.001-0 0.001-0 0.002-0.001 0.003-0.001 0.005-0.002s0.005-0.004 0.007-0.006c0-0.001 0.001-0.001 0.001-0.002 0.003-0.004 0.005-0.008 0.006-0.015 0.032-0.144 0.376-0.423 0.804-0.722 0.383-0.268 0.834-0.553 1.19-0.774 0.314-0.195 0.554-0.34 0.605-0.378 0.019-0.015 0.042-0.032 0.068-0.051 0.005-0.004 0.009-0.007 0.014-0.011 0.003-0.002 0.006-0.005 0.009-0.007 0.169-0.135 0.421-0.389 0.474-0.924 0-0.001 0-0.002 0-0.004 0.002-0.016 0.003-0.032 0.004-0.048 0.001-0.011 0.002-0.023 0.002-0.034 0-0.009 0.001-0.018 0.001-0.027 0.001-0.021 0.002-0.043 0.002-0.065 0-0.001 0-0.002 0-0.004 0.001-0.052-0-0.106-0.003-0.163-0.002-0.032-0.004-0.060-0.009-0.086-0-0.001-0.001-0.003-0.001-0.004-0.001-0.003-0.001-0.005-0.002-0.008-0.001-0.005-0.002-0.009-0.004-0.013-0-0.001-0-0.001-0.001-0.001-0.002-0.005-0.004-0.010-0.005-0.014-0-0-0-0-0-0.001-0.055-0.128-0.26-0.177-1.108-0.191-0.001-0-0.002-0-0.002-0v0c-0.346-0.006-0.798-0.006-1.391-0.004-1.039 0.004-1.613-1.016-1.797-1.41 0.251-1.389 0.977-2.379 2.17-3.051 0.023-0.013 0.018-0.023-0.009-0.031 0.233-0.141-2.82-0.004-4.225 1.782-1.247-0.31-2.333-0.289-3.269-0.069-0.18-0.005-0.404-0.027-0.67-0.083-0.623-0.564-1.514-1.606-1.562-2.85 0 0-0.003 0.002-0.008 0.006-0.001-0.012-0.002-0.024-0.002-0.036 0 0-1.897 1.458-1.613 5.434-0.001 0.064-0.002 0.125-0.004 0.184-0.514 0.696-0.768 1.282-0.787 1.411-0.455 0.926-0.917 2.32-1.292 4.437 0 0 0.263-0.833 0.79-1.777-0.388 1.188-0.693 3.036-0.514 5.808 0 0 0.047-0.615 0.215-1.5 0.131 1.719 0.704 3.841 2.152 6.337 2.78 4.791 7.052 7.211 11.775 7.582 0.839 0.069 1.689 0.071 2.544 0.006 0.079-0.006 0.157-0.011 0.236-0.018 0.968-0.068 1.942-0.214 2.914-0.449 13.287-3.212 11.842-19.256 11.842-19.256z"></path>
</symbol>
<symbol id="icon-IE" viewBox="0 0 32 32">
<title>IE</title>
<path d="M22.944 19.651h7.377c0.057-0.512 0.080-1.034 0.080-1.569 0-2.507-0.673-4.858-1.848-6.883 1.215-3.228 1.172-5.968-0.455-7.606-1.547-1.54-5.697-1.29-10.388 0.787-0.347-0.026-0.697-0.040-1.051-0.040-6.439 0-11.841 4.431-13.335 10.402 2.020-2.586 4.145-4.461 6.984-5.826-0.258 0.242-1.764 1.739-2.018 1.993-7.486 7.484-9.847 17.26-7.306 19.8 1.931 1.93 5.43 1.604 9.449-0.364 1.869 0.952 3.984 1.488 6.226 1.488 6.035 0 11.15-3.885 13.003-9.295h-7.433c-1.023 1.887-3.023 3.171-5.319 3.171s-4.296-1.284-5.319-3.171c-0.455-0.852-0.716-1.83-0.716-2.864v-0.023h12.071zM10.884 16.025c0.171-3.035 2.694-5.456 5.774-5.456s5.604 2.421 5.774 5.456h-11.548zM28.030 5.119c1.048 1.059 1.021 3.007 0.125 5.438-1.535-2.341-3.766-4.186-6.4-5.239 2.816-1.207 5.106-1.367 6.274-0.199zM2.921 30.227c-1.337-1.337-0.934-4.144 0.788-7.526 1.072 3.008 3.161 5.534 5.854 7.161-2.982 1.354-5.423 1.584-6.643 0.365z"></path>
</symbol>
<symbol id="icon-html-five" viewBox="0 0 32 32">
<title>html-five</title>
<path d="M1.892 0l2.567 28.801 11.524 3.199 11.554-3.204 2.572-28.796h-28.216zM24.52 9.42h-13.517l0.322 3.617h12.874l-0.97 10.844-7.245 2.008-7.237-2.008-0.495-5.547h3.547l0.252 2.82 3.933 1.060 0.009-0.002 3.935-1.062 0.408-4.58h-12.242l-0.953-10.681h17.694l-0.316 3.532z"></path>
</symbol>
<symbol id="icon-html-five2" viewBox="0 0 32 32">
<title>html-five2</title>
<path d="M1.892 0l2.567 28.801 11.524 3.199 11.554-3.204 2.572-28.796h-28.216zM25.336 26.963l-9.288 2.574v0.015l-0.024-0.007-0.024 0.007v-0.015l-9.288-2.574-2.195-24.609h23.015l-2.195 24.609zM20.336 16.569l-0.408 4.58-3.944 1.065-3.933-1.060-0.252-2.82h-3.547l0.495 5.547 7.252 2.006 7.229-2.006 0.97-10.844h-12.874l-0.322-3.617h13.517l0.316-3.532h-17.694l0.953 10.681z"></path>
</symbol>
<symbol id="icon-css3" viewBox="0 0 32 32">
<title>css3</title>
<path d="M4.762 1.516l-1.074 5.373h21.867l-0.684 3.47h-21.881l-1.059 5.372h21.865l-1.219 6.127-8.813 2.919-7.638-2.919 0.523-2.658h-5.372l-1.278 6.448 12.632 4.834 14.563-4.834 4.805-24.133z"></path>
</symbol>
<symbol id="icon-git" viewBox="0 0 32 32">
<title>git</title>
<path d="M31.397 14.575l-13.972-13.971c-0.804-0.805-2.109-0.805-2.915 0l-3.246 3.246 2.443 2.443c0.392-0.187 0.83-0.293 1.293-0.293 1.657 0 3 1.343 3 3 0 0.463-0.105 0.902-0.293 1.293l3.999 3.999c0.392-0.187 0.83-0.293 1.293-0.293 1.657 0 3 1.343 3 3s-1.343 3-3 3-3-1.343-3-3c0-0.463 0.105-0.902 0.293-1.293l-3.999-3.999c-0.095 0.046-0.193 0.086-0.293 0.121v8.343c1.165 0.412 2 1.522 2 2.829 0 1.657-1.343 3-3 3s-3-1.343-3-3c0-1.306 0.835-2.417 2-2.829v-8.343c-1.165-0.412-2-1.522-2-2.829 0-0.463 0.105-0.902 0.293-1.293l-2.443-2.443-9.247 9.246c-0.805 0.806-0.805 2.11 0 2.915l13.973 13.971c0.804 0.805 2.109 0.805 2.915 0l13.906-13.906c0.805-0.805 0.805-2.111-0-2.915z"></path>
</symbol>
<symbol id="icon-codepen" viewBox="0 0 32 32">
<title>codepen</title>
<path d="M29.555 11.501l-14-9.333c-0.336-0.224-0.774-0.224-1.109 0l-14 9.333c-0.278 0.185-0.445 0.498-0.445 0.832v9.333c0 0.334 0.167 0.647 0.445 0.832l14 9.333c0.168 0.112 0.361 0.168 0.555 0.168s0.387-0.056 0.555-0.168l14-9.333c0.278-0.185 0.445-0.498 0.445-0.832v-9.333c0-0.334-0.167-0.647-0.445-0.832zM15 20.465l-5.197-3.465 5.197-3.465 5.197 3.465-5.197 3.465zM16 11.798v-6.93l11.197 7.465-5.197 3.465-6-4zM14 11.798l-6 4-5.197-3.465 11.197-7.465v6.93zM6.197 17l-4.197 2.798v-5.596l4.197 2.798zM8 18.202l6 4v6.93l-11.197-7.465 5.197-3.465zM16 22.202l6-4 5.197 3.465-11.197 7.465v-6.93zM23.803 17l4.197-2.798v5.596l-4.197-2.798z"></path>
</symbol>
</defs>
</svg>
